<svg xmlns="http://www.w3.org/2000/svg" viewBox="0 0 128 128" role="img" aria-label="Heyu Space">
  <defs>
    <linearGradient id="g" x1="20" y1="108" x2="108" y2="20" gradientUnits="userSpaceOnUse">
      <stop stop-color="#071833"/>
      <stop offset="0.58" stop-color="#0c63ff"/>
      <stop offset="1" stop-color="#10d5ff"/>
    </linearGradient>
    <filter id="glow" x="-30%" y="-30%" width="160%" height="160%">
      <feGaussianBlur stdDeviation="2.4" result="blur"/>
      <feMerge>
        <feMergeNode in="blur"/>
        <feMergeNode in="SourceGraphic"/>
      </feMerge>
    </filter>
  </defs>
  <rect width="128" height="128" rx="30" fill="#f7f3ea"/>
  <circle cx="64" cy="64" r="45" fill="#ffffff" stroke="url(#g)" stroke-width="8"/>
  <path d="M50 93V39l31 12v42H50Z" fill="#071833"/>
  <path d="M59 84V50l18 8v26H59Z" fill="#ffffff" opacity="0.94"/>
  <path d="M42 94h44M48 84h32M54 74h22" stroke="#10d5ff" stroke-width="5" stroke-linecap="round" opacity="0.9"/>
  <path d="M35 55h18M35 73h18M93 55H75M93 73H75" stroke="#10d5ff" stroke-width="5" stroke-linecap="round"/>
  <circle cx="31" cy="55" r="4" fill="#10d5ff"/>
  <circle cx="31" cy="73" r="4" fill="#10d5ff"/>
  <circle cx="97" cy="55" r="4" fill="#10d5ff"/>
  <circle cx="97" cy="73" r="4" fill="#10d5ff"/>
  <path d="M64 10l4 10 10 4-10 4-4 10-4-10-10-4 10-4 4-10Z" fill="#10d5ff" filter="url(#glow)"/>
</svg>
