<svg xmlns="http://www.w3.org/2000/svg" viewBox="0 0 900 359" role="img" aria-label="Heyu Space 何欲 logo">
  <defs>
    <linearGradient id="blue" x1="0" y1="1" x2="1" y2="0">
      <stop offset="0" stop-color="#061736"/>
      <stop offset="0.55" stop-color="#0c63ff"/>
      <stop offset="1" stop-color="#12d7ff"/>
    </linearGradient>
    <linearGradient id="cyan" x1="0" y1="1" x2="1" y2="0">
      <stop offset="0" stop-color="#0c63ff"/>
      <stop offset="1" stop-color="#10d5ff"/>
    </linearGradient>
    <filter id="glow" x="-30%" y="-30%" width="160%" height="160%">
      <feGaussianBlur stdDeviation="3" result="blur"/>
      <feMerge><feMergeNode in="blur"/><feMergeNode in="SourceGraphic"/></feMerge>
    </filter>
  </defs>

  <rect width="900" height="359" rx="24" fill="#fff"/>

  <g transform="translate(42 32)">
    <circle cx="122" cy="122" r="104" fill="#071833"/>
    <circle cx="122" cy="122" r="112" fill="none" stroke="url(#blue)" stroke-width="8"/>
    <circle cx="122" cy="122" r="94" fill="none" stroke="#ffffff" stroke-width="8" opacity="0.94"/>

    <path d="M103 202V68l63 27v107H103Z" fill="#ffffff"/>
    <path d="M116 184V91l37 16v77H116Z" fill="#071833" opacity="0.18"/>
    <path d="M83 203h98M94 190h76M105 177h54" stroke="url(#cyan)" stroke-width="6" stroke-linecap="round"/>

    <g fill="none" stroke="#10d5ff" stroke-width="5" stroke-linecap="round" stroke-linejoin="round">
      <path d="M41 101h27l20 20"/>
      <path d="M36 130h40l16 16"/>
      <path d="M42 160h28l22-22"/>
      <path d="M203 101h-27l-20 20"/>
      <path d="M208 130h-40l-16 16"/>
      <path d="M202 160h-28l-22-22"/>
    </g>
    <g fill="#10d5ff" stroke="#e9fbff" stroke-width="3">
      <circle cx="37" cy="101" r="8"/><circle cx="32" cy="130" r="8"/><circle cx="38" cy="160" r="8"/>
      <circle cx="207" cy="101" r="8"/><circle cx="212" cy="130" r="8"/><circle cx="206" cy="160" r="8"/>
    </g>
    <path d="M122 12l6 17 17 6-17 6-6 17-6-17-17-6 17-6 6-17Z" fill="#10d5ff" filter="url(#glow)"/>
  </g>

  <g transform="translate(285 86)">
    <text x="0" y="92" font-family="Arial, 'Noto Sans SC', sans-serif" font-size="74" font-weight="800" letter-spacing="-2" fill="#071833">Heyu Space</text>
    <line x1="50" y1="154" x2="205" y2="154" stroke="#071833" stroke-width="2.5" opacity="0.72"/>
    <circle cx="226" cy="154" r="7" fill="#10d5ff"/>
    <text x="258" y="166" font-family="'Noto Sans SC', 'Microsoft YaHei', sans-serif" font-size="44" font-weight="600" letter-spacing="12" fill="#071833">何欲</text>
    <circle cx="392" cy="154" r="7" fill="#10d5ff"/>
    <line x1="414" y1="154" x2="570" y2="154" stroke="#071833" stroke-width="2.5" opacity="0.72"/>
  </g>
</svg>
